<?xml version="1.0" encoding="utf-8"?>
<!-- Generator: Adobe Illustrator 17.0.0, SVG Export Plug-In . SVG Version: 6.00 Build 0)  -->
<!DOCTYPE svg PUBLIC "-//W3C//DTD SVG 1.1//EN" "http://www.w3.org/Graphics/SVG/1.1/DTD/svg11.dtd">
<svg version="1.1" id="Layer_1" xmlns="http://www.w3.org/2000/svg" xmlns:xlink="http://www.w3.org/1999/xlink" x="0px" y="0px"
	 width="500px" height="500px" viewBox="0 0 500 500" enable-background="new 0 0 500 500" xml:space="preserve">
<rect x="66.252" y="31.457" fill="#231815" stroke="#FFFFFF" stroke-miterlimit="10" width="359.843" height="15.748"/>
<rect x="66.252" y="55.866" fill="#231815" stroke="#FFFFFF" stroke-miterlimit="10" width="359.843" height="15.748"/>
<rect x="66.252" y="80.276" fill="#231815" stroke="#FFFFFF" stroke-miterlimit="10" width="359.843" height="15.748"/>
<rect x="66.252" y="104.685" fill="#231815" stroke="#FFFFFF" stroke-miterlimit="10" width="359.843" height="15.748"/>
<rect x="66.252" y="129.094" fill="#231815" stroke="#FFFFFF" stroke-miterlimit="10" width="359.843" height="15.748"/>
<rect x="66.252" y="153.504" fill="#231815" stroke="#FFFFFF" stroke-miterlimit="10" width="359.843" height="15.748"/>
<rect x="66.252" y="177.913" fill="#231815" stroke="#FFFFFF" stroke-miterlimit="10" width="359.843" height="15.748"/>
<rect x="66.252" y="202.323" fill="#231815" stroke="#FFFFFF" stroke-miterlimit="10" width="359.843" height="15.748"/>
<rect x="66.252" y="226.732" fill="#231815" stroke="#FFFFFF" stroke-miterlimit="10" width="359.843" height="15.748"/>
<rect x="66.252" y="251.142" fill="#231815" stroke="#FFFFFF" stroke-miterlimit="10" width="359.843" height="15.748"/>
<rect x="66.252" y="275.551" fill="#231815" stroke="#FFFFFF" stroke-miterlimit="10" width="359.843" height="15.748"/>
<rect x="66.252" y="299.961" fill="#231815" stroke="#FFFFFF" stroke-miterlimit="10" width="359.843" height="15.748"/>
<rect x="66.252" y="324.37" fill="#231815" stroke="#FFFFFF" stroke-miterlimit="10" width="359.843" height="15.748"/>
<rect x="66.252" y="348.78" fill="#231815" stroke="#FFFFFF" stroke-miterlimit="10" width="359.843" height="15.748"/>
<rect x="66.252" y="373.189" fill="#231815" stroke="#FFFFFF" stroke-miterlimit="10" width="359.843" height="15.748"/>
</svg>
